# xmcd
#
# Track frame offsets:
#	150
#	13086
#	25708
#	40082
#	57408
#	72897
#	87404
#	98583
#	112354
#	124886
#	143095
#	159066
#	176163
#	187979
#	204441
#	217822
#	230489
#	243513
#	263307
#	278131
#	293505
#	310134
#	321205
#	334319
#
# Disc length: 4699 seconds
#
# Revision: 0
# Processed by: cddbd v1.5.2PL0 Copyright (c) Steve Scherf et al.
# Submitted via: audiograbber 1.83.01
#
DISCID=50125918
DTITLE=Zillertaler Schürzenjäger - typisch Schürzenjäger
DYEAR=1900
DGENRE=
TTITLE0=Ich habe mein Wort einer anderen gegeben
TTITLE1=Der Jodelautomat
TTITLE2=Schürzenjägerzeit
TTITLE3=Zum Beten geh i in die Berge
TTITLE4=Was dann?
TTITLE5=Dahoam is dahoam
TTITLE6=Zillertaler Hochzeitsmarsch
TTITLE7=Sierra Madre
TTITLE8=Sommer in den Bergen
TTITLE9=Mein Tirol, ich vermisse dich
TTITLE10=Rock`n Roll im Zillertal
TTITLE11=Alles braucht im Leben seine Zeit
TTITLE12=Typisch für mi
TTITLE13=Auf einmal warst du da
TTITLE14=Nakkapazzi
TTITLE15=Ein Tiroler wollte lieben
TTITLE16=Gestern wird morgen
TTITLE17=In der Prärie der Phantasie
TTITLE18=Dafür mach ma Musik
TTITLE19=Wenn die Nacht kommt
TTITLE20=Die gelben Seiten
TTITLE21=Jede Nacht a lange Nacht
TTITLE22=He, Hejo
TTITLE23=Jeden Herzschlag wert
EXTD=
EXTT0=
EXTT1=
EXTT2=
EXTT3=
EXTT4=
EXTT5=
EXTT6=
EXTT7=
EXTT8=
EXTT9=
EXTT10=
EXTT11=
EXTT12=
EXTT13=
EXTT14=
EXTT15=
EXTT16=
EXTT17=
EXTT18=
EXTT19=
EXTT20=
EXTT21=
EXTT22=
EXTT23=
PLAYORDER=
